<svg width="1589" height="1593" viewBox="0 0 1589 1593" fill="none" xmlns="http://www.w3.org/2000/svg">
<path fill-rule="evenodd" clip-rule="evenodd" d="M372.891 378.542C426.354 335.947 496.742 320.349 564.671 305.104C628.138 290.861 693.704 292.333 759.714 291.729C826.641 291.116 893.62 283.107 959.415 301.491C1027.35 320.473 1096.68 349.168 1147.56 400.097C1198.13 450.707 1220.58 521.437 1245.29 587.632C1268.14 648.831 1270.8 712.856 1287.76 775.557C1306.47 844.753 1354.96 909.648 1351.31 979.619C1347.65 1049.81 1311.23 1113.7 1267.41 1165.73C1224.43 1216.76 1158.92 1240.78 1101.9 1275.73C1045.47 1310.32 996.688 1361.22 930.152 1372.43C863.666 1383.63 794.88 1355.61 727.478 1338.82C662.1 1322.53 595.157 1309.92 536.563 1274.37C477.916 1238.8 432.217 1185.86 388.061 1132.93C343.492 1079.5 298.504 1024.83 274.639 960.378C250.617 895.498 252.583 826.93 249.711 759.267C246.71 688.537 235.967 615.759 257.225 550.054C278.907 483.038 318.633 421.77 372.891 378.542Z" fill="url(#paint0_linear)"/>
<defs>
<linearGradient id="paint0_linear" x1="411.902" y1="1163.45" x2="1176.55" y2="430.261" gradientUnits="userSpaceOnUse">
<stop stop-color="#C84E89" stop-opacity="0.03"/>
<stop offset="1" stop-color="#F15F79"/>
</linearGradient>
</defs>
</svg>
