<svg width="1027" height="1305" viewBox="0 0 1027 1305" fill="none" xmlns="http://www.w3.org/2000/svg">
<path fill-rule="evenodd" clip-rule="evenodd" d="M812.369 20.2945C865.139 44.788 896.801 100.499 927.538 154.152C956.255 204.28 970.803 265.448 987.398 325.821C1004.22 387.032 1027.97 444.005 1026.78 515.185C1025.55 588.683 1015.58 669.09 980.366 745.414C945.372 821.261 884.758 882.906 828.931 944.008C777.317 1000.5 718.158 1040.05 663.71 1091.99C603.622 1149.31 554.781 1231.53 488.538 1268.72C422.086 1306.04 353.561 1309.57 294.326 1299.41C236.221 1289.45 197.873 1243.11 151.382 1210.91C105.372 1179.05 45.9816 1163.67 19.3514 1108.97C-7.2594 1054.3 2.20651 974.782 1.52256 903.045C0.859173 833.463 -3.61307 764.569 15.3576 690.067C34.3452 615.498 72.6926 542.779 111.413 471.479C150.496 399.513 190.629 326.447 245.04 267.134C299.807 207.433 364.331 169.501 426.835 127.643C492.172 83.8878 557.542 31.8245 624.077 13.2985C691.939 -5.59712 758.814 -4.56319 812.369 20.2945Z" fill="#C84E89" fill-opacity="0.26"/>
</svg>
